# xmcd
# 
# Track frame offsets:
#     150
#     17020
#     33930
# 
# Disc length: 908
# 
# Revision: 15
# Processed by: cddbd v1.5.2PL0 Copyright (c) Steve Scherf et al.
# Submitted via: fre:ac v1.0.17
# 
DISCID=17038a03
DTITLE=Various Artist - ハッピー☆マテリアル 2月度
DYEAR=2005
DGENRE=Anime
TTITLE0=麻帆良学園中等部2-A(柿崎美砂、神楽坂明日菜、春日美空、絡繰茶々丸、釘宮円) - ハッピー☆マテリアル
TTITLE1=麻帆良学園中等部2-A(柿崎美砂、神楽坂明日菜、春日美空、絡繰茶々丸、釘宮円) - ハッピー☆マテリアル (More Rock Instrumental Ver.)
TTITLE2=麻帆良学園中等部2-A(柿崎美砂、神楽坂明日菜、春日美空、絡繰茶々丸、釘宮円) - シアワセノスパイス
EXTD=YEAR: 2005
EXTT0=
EXTT1=
EXTT2=
PLAYORDER=
